<svg xmlns="http://www.w3.org/2000/svg" viewBox="0 0 192 52" width="192mm" height="52mm">
  <g id="ls1_n"><rect x="6" y="6" width="12" height="12" rx="2.5" fill="#ffffff" stroke="#141414" stroke-width="1"/><text x="12" y="13.89" font-family="Inter, system-ui, sans-serif" font-size="5.4" font-weight="600" fill="#141414" text-anchor="middle">S</text></g>
  <g id="ls1"><rect x="6" y="6" width="12" height="12" rx="2.5" fill="#f4b400" stroke="#141414" stroke-width="1"/><text x="12" y="13.89" font-family="Inter, system-ui, sans-serif" font-size="5.4" font-weight="600" fill="#141414" text-anchor="middle">S</text></g>
  <g id="ls2_n"><rect x="6" y="20" width="12" height="12" rx="2.5" fill="#ffffff" stroke="#141414" stroke-width="1"/><text x="12" y="27.89" font-family="Inter, system-ui, sans-serif" font-size="5.4" font-weight="600" fill="#141414" text-anchor="middle">S</text></g>
  <g id="ls2"><rect x="6" y="20" width="12" height="12" rx="2.5" fill="#f4b400" stroke="#141414" stroke-width="1"/><text x="12" y="27.89" font-family="Inter, system-ui, sans-serif" font-size="5.4" font-weight="600" fill="#141414" text-anchor="middle">S</text></g>
  <g id="lt_n"><rect x="20" y="6" width="12" height="12" rx="2.5" fill="#ffffff" stroke="#141414" stroke-width="1"/><text x="26" y="13.89" font-family="Inter, system-ui, sans-serif" font-size="5.4" font-weight="600" fill="#141414" text-anchor="middle">T</text></g>
  <g id="lt"><rect x="20" y="6" width="12" height="12" rx="2.5" fill="#f4b400" stroke="#141414" stroke-width="1"/><text x="26" y="13.89" font-family="Inter, system-ui, sans-serif" font-size="5.4" font-weight="600" fill="#141414" text-anchor="middle">T</text></g>
  <g id="lk_n"><rect x="20" y="20" width="12" height="12" rx="2.5" fill="#ffffff" stroke="#141414" stroke-width="1"/><text x="26" y="27.89" font-family="Inter, system-ui, sans-serif" font-size="5.4" font-weight="600" fill="#141414" text-anchor="middle">K</text></g>
  <g id="lk"><rect x="20" y="20" width="12" height="12" rx="2.5" fill="#f4b400" stroke="#141414" stroke-width="1"/><text x="26" y="27.89" font-family="Inter, system-ui, sans-serif" font-size="5.4" font-weight="600" fill="#141414" text-anchor="middle">K</text></g>
  <g id="lp_n"><rect x="34" y="6" width="12" height="12" rx="2.5" fill="#ffffff" stroke="#141414" stroke-width="1"/><text x="40" y="13.89" font-family="Inter, system-ui, sans-serif" font-size="5.4" font-weight="600" fill="#141414" text-anchor="middle">P</text></g>
  <g id="lp"><rect x="34" y="6" width="12" height="12" rx="2.5" fill="#f4b400" stroke="#141414" stroke-width="1"/><text x="40" y="13.89" font-family="Inter, system-ui, sans-serif" font-size="5.4" font-weight="600" fill="#141414" text-anchor="middle">P</text></g>
  <g id="lw_n"><rect x="34" y="20" width="12" height="12" rx="2.5" fill="#ffffff" stroke="#141414" stroke-width="1"/><text x="40" y="27.89" font-family="Inter, system-ui, sans-serif" font-size="5.4" font-weight="600" fill="#141414" text-anchor="middle">W</text></g>
  <g id="lw"><rect x="34" y="20" width="12" height="12" rx="2.5" fill="#f4b400" stroke="#141414" stroke-width="1"/><text x="40" y="27.89" font-family="Inter, system-ui, sans-serif" font-size="5.4" font-weight="600" fill="#141414" text-anchor="middle">W</text></g>
  <g id="lh_n"><rect x="48" y="6" width="12" height="12" rx="2.5" fill="#ffffff" stroke="#141414" stroke-width="1"/><text x="54" y="13.89" font-family="Inter, system-ui, sans-serif" font-size="5.4" font-weight="600" fill="#141414" text-anchor="middle">H</text></g>
  <g id="lh"><rect x="48" y="6" width="12" height="12" rx="2.5" fill="#f4b400" stroke="#141414" stroke-width="1"/><text x="54" y="13.89" font-family="Inter, system-ui, sans-serif" font-size="5.4" font-weight="600" fill="#141414" text-anchor="middle">H</text></g>
  <g id="lr_n"><rect x="48" y="20" width="12" height="12" rx="2.5" fill="#ffffff" stroke="#141414" stroke-width="1"/><text x="54" y="27.89" font-family="Inter, system-ui, sans-serif" font-size="5.4" font-weight="600" fill="#141414" text-anchor="middle">R</text></g>
  <g id="lr"><rect x="48" y="20" width="12" height="12" rx="2.5" fill="#f4b400" stroke="#141414" stroke-width="1"/><text x="54" y="27.89" font-family="Inter, system-ui, sans-serif" font-size="5.4" font-weight="600" fill="#141414" text-anchor="middle">R</text></g>
  <g id="star1_n"><rect x="62" y="6" width="12" height="12" rx="2.5" fill="#ffffff" stroke="#141414" stroke-width="1"/><text x="68" y="13.89" font-family="Inter, system-ui, sans-serif" font-size="5.4" font-weight="600" fill="#141414" text-anchor="middle">*</text></g>
  <g id="star1"><rect x="62" y="6" width="12" height="12" rx="2.5" fill="#f4b400" stroke="#141414" stroke-width="1"/><text x="68" y="13.89" font-family="Inter, system-ui, sans-serif" font-size="5.4" font-weight="600" fill="#141414" text-anchor="middle">*</text></g>
  <g id="star2_n"><rect x="62" y="20" width="12" height="12" rx="2.5" fill="#ffffff" stroke="#141414" stroke-width="1"/><text x="68" y="27.89" font-family="Inter, system-ui, sans-serif" font-size="5.4" font-weight="600" fill="#141414" text-anchor="middle">*</text></g>
  <g id="star2"><rect x="62" y="20" width="12" height="12" rx="2.5" fill="#f4b400" stroke="#141414" stroke-width="1"/><text x="68" y="27.89" font-family="Inter, system-ui, sans-serif" font-size="5.4" font-weight="600" fill="#141414" text-anchor="middle">*</text></g>
  <g id="star3_n"><rect x="104" y="6" width="12" height="12" rx="2.5" fill="#ffffff" stroke="#141414" stroke-width="1"/><text x="110" y="13.89" font-family="Inter, system-ui, sans-serif" font-size="5.4" font-weight="600" fill="#141414" text-anchor="middle">*</text></g>
  <g id="star3"><rect x="104" y="6" width="12" height="12" rx="2.5" fill="#f4b400" stroke="#141414" stroke-width="1"/><text x="110" y="13.89" font-family="Inter, system-ui, sans-serif" font-size="5.4" font-weight="600" fill="#141414" text-anchor="middle">*</text></g>
  <g id="star4_n"><rect x="104" y="20" width="12" height="12" rx="2.5" fill="#ffffff" stroke="#141414" stroke-width="1"/><text x="110" y="27.89" font-family="Inter, system-ui, sans-serif" font-size="5.4" font-weight="600" fill="#141414" text-anchor="middle">*</text></g>
  <g id="star4"><rect x="104" y="20" width="12" height="12" rx="2.5" fill="#f4b400" stroke="#141414" stroke-width="1"/><text x="110" y="27.89" font-family="Inter, system-ui, sans-serif" font-size="5.4" font-weight="600" fill="#141414" text-anchor="middle">*</text></g>
  <g id="rf_n"><rect x="118" y="6" width="12" height="12" rx="2.5" fill="#ffffff" stroke="#141414" stroke-width="1"/><text x="124" y="13.89" font-family="Inter, system-ui, sans-serif" font-size="5.4" font-weight="600" fill="#141414" text-anchor="middle">F</text></g>
  <g id="rf"><rect x="118" y="6" width="12" height="12" rx="2.5" fill="#f4b400" stroke="#141414" stroke-width="1"/><text x="124" y="13.89" font-family="Inter, system-ui, sans-serif" font-size="5.4" font-weight="600" fill="#141414" text-anchor="middle">F</text></g>
  <g id="rr_n"><rect x="118" y="20" width="12" height="12" rx="2.5" fill="#ffffff" stroke="#141414" stroke-width="1"/><text x="124" y="27.89" font-family="Inter, system-ui, sans-serif" font-size="5.4" font-weight="600" fill="#141414" text-anchor="middle">R</text></g>
  <g id="rr"><rect x="118" y="20" width="12" height="12" rx="2.5" fill="#f4b400" stroke="#141414" stroke-width="1"/><text x="124" y="27.89" font-family="Inter, system-ui, sans-serif" font-size="5.4" font-weight="600" fill="#141414" text-anchor="middle">R</text></g>
  <g id="rp_n"><rect x="132" y="6" width="12" height="12" rx="2.5" fill="#ffffff" stroke="#141414" stroke-width="1"/><text x="138" y="13.89" font-family="Inter, system-ui, sans-serif" font-size="5.4" font-weight="600" fill="#141414" text-anchor="middle">P</text></g>
  <g id="rp"><rect x="132" y="6" width="12" height="12" rx="2.5" fill="#f4b400" stroke="#141414" stroke-width="1"/><text x="138" y="13.89" font-family="Inter, system-ui, sans-serif" font-size="5.4" font-weight="600" fill="#141414" text-anchor="middle">P</text></g>
  <g id="rb_n"><rect x="132" y="20" width="12" height="12" rx="2.5" fill="#ffffff" stroke="#141414" stroke-width="1"/><text x="138" y="27.89" font-family="Inter, system-ui, sans-serif" font-size="5.4" font-weight="600" fill="#141414" text-anchor="middle">B</text></g>
  <g id="rb"><rect x="132" y="20" width="12" height="12" rx="2.5" fill="#f4b400" stroke="#141414" stroke-width="1"/><text x="138" y="27.89" font-family="Inter, system-ui, sans-serif" font-size="5.4" font-weight="600" fill="#141414" text-anchor="middle">B</text></g>
  <g id="rl_n"><rect x="146" y="6" width="12" height="12" rx="2.5" fill="#ffffff" stroke="#141414" stroke-width="1"/><text x="152" y="13.89" font-family="Inter, system-ui, sans-serif" font-size="5.4" font-weight="600" fill="#141414" text-anchor="middle">L</text></g>
  <g id="rl"><rect x="146" y="6" width="12" height="12" rx="2.5" fill="#f4b400" stroke="#141414" stroke-width="1"/><text x="152" y="13.89" font-family="Inter, system-ui, sans-serif" font-size="5.4" font-weight="600" fill="#141414" text-anchor="middle">L</text></g>
  <g id="rg_n"><rect x="146" y="20" width="12" height="12" rx="2.5" fill="#ffffff" stroke="#141414" stroke-width="1"/><text x="152" y="27.89" font-family="Inter, system-ui, sans-serif" font-size="5.4" font-weight="600" fill="#141414" text-anchor="middle">G</text></g>
  <g id="rg"><rect x="146" y="20" width="12" height="12" rx="2.5" fill="#f4b400" stroke="#141414" stroke-width="1"/><text x="152" y="27.89" font-family="Inter, system-ui, sans-serif" font-size="5.4" font-weight="600" fill="#141414" text-anchor="middle">G</text></g>
  <g id="rt_n"><rect x="160" y="6" width="12" height="12" rx="2.5" fill="#ffffff" stroke="#141414" stroke-width="1"/><text x="166" y="13.89" font-family="Inter, system-ui, sans-serif" font-size="5.4" font-weight="600" fill="#141414" text-anchor="middle">T</text></g>
  <g id="rt"><rect x="160" y="6" width="12" height="12" rx="2.5" fill="#f4b400" stroke="#141414" stroke-width="1"/><text x="166" y="13.89" font-family="Inter, system-ui, sans-serif" font-size="5.4" font-weight="600" fill="#141414" text-anchor="middle">T</text></g>
  <g id="rs_n"><rect x="160" y="20" width="12" height="12" rx="2.5" fill="#ffffff" stroke="#141414" stroke-width="1"/><text x="166" y="27.89" font-family="Inter, system-ui, sans-serif" font-size="5.4" font-weight="600" fill="#141414" text-anchor="middle">S</text></g>
  <g id="rs"><rect x="160" y="20" width="12" height="12" rx="2.5" fill="#f4b400" stroke="#141414" stroke-width="1"/><text x="166" y="27.89" font-family="Inter, system-ui, sans-serif" font-size="5.4" font-weight="600" fill="#141414" text-anchor="middle">S</text></g>
  <g id="rd_n"><rect x="174" y="6" width="12" height="12" rx="2.5" fill="#ffffff" stroke="#141414" stroke-width="1"/><text x="180" y="13.89" font-family="Inter, system-ui, sans-serif" font-size="5.4" font-weight="600" fill="#141414" text-anchor="middle">D</text></g>
  <g id="rd"><rect x="174" y="6" width="12" height="12" rx="2.5" fill="#f4b400" stroke="#141414" stroke-width="1"/><text x="180" y="13.89" font-family="Inter, system-ui, sans-serif" font-size="5.4" font-weight="600" fill="#141414" text-anchor="middle">D</text></g>
  <g id="rz_n"><rect x="174" y="20" width="12" height="12" rx="2.5" fill="#ffffff" stroke="#141414" stroke-width="1"/><text x="180" y="27.89" font-family="Inter, system-ui, sans-serif" font-size="5.4" font-weight="600" fill="#141414" text-anchor="middle">Z</text></g>
  <g id="rz"><rect x="174" y="20" width="12" height="12" rx="2.5" fill="#f4b400" stroke="#141414" stroke-width="1"/><text x="180" y="27.89" font-family="Inter, system-ui, sans-serif" font-size="5.4" font-weight="600" fill="#141414" text-anchor="middle">Z</text></g>
  <g id="num1_n"><rect x="34" y="34" width="12" height="12" rx="2.5" fill="#ffffff" stroke="#141414" stroke-width="1"/><text x="40" y="41.89" font-family="Inter, system-ui, sans-serif" font-size="5.4" font-weight="600" fill="#141414" text-anchor="middle">#</text></g>
  <g id="num1"><rect x="34" y="34" width="12" height="12" rx="2.5" fill="#f4b400" stroke="#141414" stroke-width="1"/><text x="40" y="41.89" font-family="Inter, system-ui, sans-serif" font-size="5.4" font-weight="600" fill="#141414" text-anchor="middle">#</text></g>
  <g id="la_n"><rect x="48" y="34" width="12" height="12" rx="2.5" fill="#ffffff" stroke="#141414" stroke-width="1"/><text x="54" y="41.89" font-family="Inter, system-ui, sans-serif" font-size="5.4" font-weight="600" fill="#141414" text-anchor="middle">A</text></g>
  <g id="la"><rect x="48" y="34" width="12" height="12" rx="2.5" fill="#f4b400" stroke="#141414" stroke-width="1"/><text x="54" y="41.89" font-family="Inter, system-ui, sans-serif" font-size="5.4" font-weight="600" fill="#141414" text-anchor="middle">A</text></g>
  <g id="lo_n"><rect x="62" y="34" width="12" height="12" rx="2.5" fill="#ffffff" stroke="#141414" stroke-width="1"/><text x="68" y="41.89" font-family="Inter, system-ui, sans-serif" font-size="5.4" font-weight="600" fill="#141414" text-anchor="middle">O</text></g>
  <g id="lo"><rect x="62" y="34" width="12" height="12" rx="2.5" fill="#f4b400" stroke="#141414" stroke-width="1"/><text x="68" y="41.89" font-family="Inter, system-ui, sans-serif" font-size="5.4" font-weight="600" fill="#141414" text-anchor="middle">O</text></g>
  <g id="re_n"><rect x="104" y="34" width="12" height="12" rx="2.5" fill="#ffffff" stroke="#141414" stroke-width="1"/><text x="110" y="41.89" font-family="Inter, system-ui, sans-serif" font-size="5.4" font-weight="600" fill="#141414" text-anchor="middle">E</text></g>
  <g id="re"><rect x="104" y="34" width="12" height="12" rx="2.5" fill="#f4b400" stroke="#141414" stroke-width="1"/><text x="110" y="41.89" font-family="Inter, system-ui, sans-serif" font-size="5.4" font-weight="600" fill="#141414" text-anchor="middle">E</text></g>
  <g id="ru_n"><rect x="118" y="34" width="12" height="12" rx="2.5" fill="#ffffff" stroke="#141414" stroke-width="1"/><text x="124" y="41.89" font-family="Inter, system-ui, sans-serif" font-size="5.4" font-weight="600" fill="#141414" text-anchor="middle">U</text></g>
  <g id="ru"><rect x="118" y="34" width="12" height="12" rx="2.5" fill="#f4b400" stroke="#141414" stroke-width="1"/><text x="124" y="41.89" font-family="Inter, system-ui, sans-serif" font-size="5.4" font-weight="600" fill="#141414" text-anchor="middle">U</text></g>
  <g id="num2_n"><rect x="132" y="34" width="12" height="12" rx="2.5" fill="#ffffff" stroke="#141414" stroke-width="1"/><text x="138" y="41.89" font-family="Inter, system-ui, sans-serif" font-size="5.4" font-weight="600" fill="#141414" text-anchor="middle">#</text></g>
  <g id="num2"><rect x="132" y="34" width="12" height="12" rx="2.5" fill="#f4b400" stroke="#141414" stroke-width="1"/><text x="138" y="41.89" font-family="Inter, system-ui, sans-serif" font-size="5.4" font-weight="600" fill="#141414" text-anchor="middle">#</text></g>
  <g id="guides"><rect x="9.5" y="16.5" width="5" height="5" rx="1.4" fill="#f41933"/><rect x="23.5" y="16.5" width="5" height="5" rx="1.4" fill="#f41933"/><rect x="37.5" y="16.5" width="5" height="5" rx="1.4" fill="#f41933"/><rect x="51.5" y="16.5" width="5" height="5" rx="1.4" fill="#f41933"/><rect x="114.5" y="16.5" width="5" height="5" rx="1.4" fill="#f41933"/><rect x="135.5" y="16.5" width="5" height="5" rx="1.4" fill="#f41933"/><rect x="149.5" y="16.5" width="5" height="5" rx="1.4" fill="#f41933"/><rect x="170.5" y="16.5" width="5" height="5" rx="1.4" fill="#f41933"/><rect x="58.5" y="37.5" width="5" height="5" rx="1.4" fill="#f41933"/><rect x="114.5" y="37.5" width="5" height="5" rx="1.4" fill="#f41933"/></g>
</svg>
